<?xml version="1.0" standalone="no"?>
<!DOCTYPE svg PUBLIC "-//W3C//DTD SVG 20010904//EN"
 "http://www.w3.org/TR/2001/REC-SVG-20010904/DTD/svg10.dtd">
<svg version="1.0" xmlns="http://www.w3.org/2000/svg"
 width="5120.000000pt" height="5120.000000pt" viewBox="0 0 5120.000000 5120.000000"
 preserveAspectRatio="xMidYMid meet">

<g transform="translate(0.000000,5120.000000) scale(0.100000,-0.100000)"
fill="#000000" stroke="none">
<path d="M12039 48535 c-268 -42 -530 -148 -749 -303 -122 -86 -316 -280 -402
-402 -171 -241 -291 -563 -314 -845 -16 -203 -108 -442 -252 -660 -94 -141
-292 -338 -435 -434 -195 -129 -400 -212 -627 -253 -108 -20 -162 -22 -850
-28 -710 -7 -738 -8 -835 -29 -244 -55 -478 -156 -665 -289 -122 -86 -316
-280 -402 -402 -132 -186 -237 -428 -291 -670 l-21 -95 -6 -3355 c-7 -3690 -1
-3381 -65 -3603 -162 -564 -649 -1013 -1220 -1125 -181 -36 -221 -42 -271 -42
-74 0 -228 -26 -328 -55 -344 -100 -630 -308 -826 -602 -109 -162 -186 -345
-226 -538 -18 -87 -19 -181 -19 -2800 0 -2575 1 -2714 18 -2794 81 -375 270
-679 562 -902 162 -124 370 -220 590 -272 88 -20 114 -21 1300 -27 666 -4
1224 -10 1240 -14 17 -4 64 -14 105 -22 465 -93 887 -416 1104 -844 76 -150
129 -310 156 -467 20 -114 20 -191 20 -6203 0 -4324 -3 -6111 -11 -6167 -78
-562 -453 -1050 -973 -1268 -208 -87 -333 -112 -621 -125 -257 -12 -346 -22
-474 -56 -271 -71 -484 -194 -686 -398 -203 -203 -339 -459 -402 -756 -17 -79
-18 -166 -18 -1320 0 -1376 -4 -1283 70 -1506 129 -387 411 -705 780 -878 75
-35 236 -89 335 -112 68 -16 179 -18 1270 -24 1290 -7 1215 -4 1416 -60 543
-153 983 -613 1117 -1170 36 -148 46 -260 57 -620 9 -330 16 -381 67 -545 171
-547 660 -956 1225 -1025 68 -8 3068 -10 11278 -8 l11185 3 90 22 c593 143
1021 571 1146 1148 21 101 26 170 39 575 10 314 23 399 85 586 79 237 201 431
389 620 233 233 461 360 791 442 l110 27 4710 5 c4404 5 4715 7 4780 23 340
83 580 216 792 441 183 193 307 428 376 711 l22 90 3 10330 c2 7580 0 10355
-8 10423 -71 581 -491 1070 -1066 1237 -216 63 19 58 -3329 65 l-3050 6 -94
22 c-350 82 -622 236 -856 485 -202 214 -342 486 -407 793 l-23 109 -3 1745
c-2 1208 0 1774 8 1840 23 203 74 379 158 547 255 508 731 835 1301 892 69 7
817 11 2243 11 2378 0 2244 -4 2463 67 222 71 410 183 582 346 176 167 313
387 386 622 50 160 58 218 67 505 11 355 12 6182 0 6445 -4 110 -16 236 -25
280 -126 617 -617 1087 -1235 1180 -143 22 -12037 22 -12180 0 -237 -36 -485
-139 -671 -280 -111 -84 -260 -242 -336 -357 -84 -126 -132 -223 -178 -362
-74 -222 -68 -99 -75 -1626 -6 -1508 -3 -1430 -67 -1650 -126 -437 -425 -795
-836 -1002 -164 -82 -337 -133 -537 -157 -58 -8 -1666 -11 -5160 -11 -5452 0
-5165 -2 -5368 49 -119 31 -213 67 -332 126 -493 249 -816 716 -880 1270 -6
59 -10 746 -10 1960 0 1929 0 1913 -41 2134 -43 229 -150 478 -287 671 -86
122 -280 316 -402 402 -186 132 -416 232 -665 290 l-100 22 -2070 2 c-1692 2
-2086 0 -2156 -11z"/>
<path d="M2 45778 c1 -95 3 -148 5 -118 4 70 23 239 30 256 2 7 -5 17 -16 24
-21 11 -21 10 -19 -162z"/>
<path d="M5 17140 c0 -1064 1 -1500 2 -968 2 533 2 1403 0 1935 -1 533 -2 97
-2 -967z"/>
<path d="M47893 3 c610 -2 1604 -2 2210 0 606 1 108 2 -1108 2 -1215 0 -1711
-1 -1102 -2z"/>
</g>
</svg>
