<svg width="320" height="320" viewBox="0 0 320 320" fill="none" xmlns="http://www.w3.org/2000/svg">
<rect width="320" height="320" fill="white"/>
<rect width="320" height="320" fill="#898989"/>
<rect x="54" y="81" width="217" height="214" rx="18" fill="#1A8B31"/>
<rect x="238" y="119" width="82" height="39" rx="12" fill="#898989"/>
<rect x="127" y="71" width="86" height="68" rx="12" fill="#1A8B31"/>
<rect x="206" y="270" width="83" height="39" rx="12" fill="#898989"/>
<rect x="134" y="42" width="72" height="39" rx="12" fill="#898989"/>
<rect x="206" y="51" width="86" height="68" rx="12" fill="#1A8B31"/>
<rect x="72" y="33" width="62" height="68" rx="12" fill="#1A8B31"/>
<rect x="56" y="46" width="62" height="68" rx="12" fill="#1A8B31"/>
<rect x="25" y="61" width="66" height="58" rx="12" fill="#1A8B31"/>
<rect x="23" y="218" width="45" height="55" rx="8" fill="#1A8B31"/>
<rect x="50" y="114" width="13" height="12" fill="#1A8B31"/>
<rect x="3" y="20" width="69" height="41" rx="15" fill="#898989"/>
<rect x="54" y="145" width="20" height="26" rx="5" transform="rotate(180 54 145)" fill="#898989"/>
<rect x="50" y="269" width="10" height="10" fill="#1A8B31"/>
<rect x="54" y="301" width="22" height="28" rx="5" transform="rotate(180 54 301)" fill="#898989"/>
<rect x="262" y="158" width="16" height="112" rx="8" fill="#1A8B31"/>
<rect x="201" y="290" width="12" height="7" fill="#898989"/>
<rect x="196" y="283" width="10" height="12" rx="5" fill="#1A8B31"/>
</svg>
